<?xml version="1.0" encoding="iso-8859-1"?>
<!-- Generator: Adobe Illustrator 19.0.0, SVG Export Plug-In . SVG Version: 6.00 Build 0)  -->
<svg version="1.1" id="Layer_1" xmlns="http://www.w3.org/2000/svg" xmlns:xlink="http://www.w3.org/1999/xlink" x="0px" y="0px"
	 viewBox="0 0 512 512" style="enable-background:new 0 0 512 512;" xml:space="preserve">
<path style="fill:#934D2B;" d="M502.865,188.049C473.095,79.648,373.856,0,256,0C114.615,0,0,114.615,0,256
	c0,117.856,79.648,217.094,188.049,246.865L502.865,188.049z"/>
<path style="fill:#813115;" d="M512,256c0-23.529-3.191-46.309-9.135-67.951l-89.458-89.458L98.592,413.408l89.458,89.458
	c21.641,5.944,44.422,9.135,67.951,9.135C397.385,512,512,397.384,512,256z"/>
<path style="fill:#FFF3AD;" d="M256,33.391L144.696,256L256,478.609c122.943,0,222.609-99.665,222.609-222.609
	S378.943,33.391,256,33.391z"/>
<path style="fill:#FFFFFF;" d="M33.391,256c0,122.943,99.665,222.609,222.609,222.609V33.391
	C133.057,33.391,33.391,133.057,33.391,256z"/>
<path style="fill:#FFD23E;" d="M256,66.783L161.391,256L256,445.217c104.501,0,189.217-84.715,189.217-189.217
	S360.501,66.783,256,66.783z"/>
<path style="fill:#FFE376;" d="M66.783,256c0,104.503,84.716,189.217,189.217,189.217V66.783
	C151.499,66.783,66.783,151.497,66.783,256z"/>
<path style="fill:#FFF3AD;" d="M256,144.696L211.478,256L256,367.304c61.472,0,111.304-49.832,111.304-111.304
	S317.472,144.696,256,144.696z"/>
<path style="fill:#FFFFFF;" d="M144.696,256c0,61.472,49.832,111.304,111.304,111.304V144.696
	C194.528,144.696,144.696,194.528,144.696,256z"/>
<path style="fill:#C9A06C;" d="M256,166.957L220.383,256L256,345.043c49.178,0,89.043-39.866,89.043-89.043
	S305.178,166.957,256,166.957z"/>
<path style="fill:#DBBC82;" d="M166.957,256c0,49.178,39.866,89.043,89.043,89.043V166.957
	C206.822,166.957,166.957,206.822,166.957,256z"/>
<g>
	<rect x="233.739" y="300.522" style="fill:#C9A06C;" width="33.391" height="22.261"/>
	<rect x="200.348" y="267.13" style="fill:#C9A06C;" width="22.261" height="22.261"/>
</g>
<rect x="289.391" y="233.739" style="fill:#B78456;" width="22.261" height="22.261"/>
<rect x="310.45" y="395.13" style="fill:#63842C;" width="72.041" height="22.261"/>
<path style="fill:#F94C10;" d="M129.504,406.261l111.304-11.13l111.304,11.13c0,15.371-12.455,27.826-27.826,27.826
	c-0.59,0-1.18-0.022-1.77-0.067l-177.375-11.119C136.416,422.355,129.504,415.121,129.504,406.261z"/>
<path style="fill:#FA690E;" d="M352.112,406.261H129.504c0-8.86,6.912-16.095,15.638-16.64l177.375-11.119
	c0.59-0.045,1.18-0.067,1.77-0.067C339.657,378.435,352.112,390.89,352.112,406.261z"/>
<rect x="392.904" y="131.729" style="fill:#63842C;" width="22.261" height="72.041"/>
<path style="fill:#F94C10;" d="M404.035,384.722l-11.13-111.304l11.13-111.304c15.371,0,27.826,12.455,27.826,27.826
	c0,0.59-0.022,1.18-0.067,1.77l-11.119,177.375C420.129,377.81,412.895,384.722,404.035,384.722z"/>
<path style="fill:#FA690E;" d="M404.035,162.114v222.609c-8.86,0-16.095-6.912-16.64-15.638l-11.119-177.375
	c-0.045-0.59-0.067-1.18-0.067-1.77C376.209,174.569,388.664,162.114,404.035,162.114z"/>
<rect x="129.503" y="99.061" style="fill:#63842C;" width="72.041" height="22.261"/>
<path style="fill:#F94C10;" d="M382.496,110.191l-111.304,11.13l-111.304-11.13c0-15.371,12.455-27.826,27.826-27.826
	c0.59,0,1.18,0.022,1.77,0.067l177.375,11.119C375.584,94.097,382.496,101.331,382.496,110.191z"/>
<path style="fill:#FA690E;" d="M159.888,110.191h222.609c0,8.86-6.912,16.095-15.638,16.64l-177.375,11.119
	c-0.59,0.045-1.18,0.067-1.77,0.067C172.343,138.017,159.888,125.562,159.888,110.191z"/>
<rect x="96.835" y="312.676" style="fill:#63842C;" width="22.261" height="72.041"/>
<path style="fill:#F94C10;" d="M107.965,131.73l11.13,111.304l-11.13,111.304c-15.371,0-27.826-12.455-27.826-27.826
	c0-0.59,0.022-1.18,0.067-1.77l11.119-177.375C91.871,138.642,99.105,131.73,107.965,131.73z"/>
<path style="fill:#FA690E;" d="M107.965,354.339V131.73c8.86,0,16.095,6.912,16.64,15.638l11.119,177.375
	c0.045,0.59,0.067,1.18,0.067,1.77C135.791,341.884,123.336,354.339,107.965,354.339z"/>
<g>
</g>
<g>
</g>
<g>
</g>
<g>
</g>
<g>
</g>
<g>
</g>
<g>
</g>
<g>
</g>
<g>
</g>
<g>
</g>
<g>
</g>
<g>
</g>
<g>
</g>
<g>
</g>
<g>
</g>
</svg>
